<?xml version="1.0" encoding="utf-8"?>
<!-- Generator: Adobe Illustrator 19.2.0, SVG Export Plug-In . SVG Version: 6.00 Build 0)  -->
<svg version="1.1" id="Capa_1" xmlns="http://www.w3.org/2000/svg" xmlns:xlink="http://www.w3.org/1999/xlink" x="0px" y="0px"
	 viewBox="0 0 438.9 438.9" style="enable-background:new 0 0 438.9 438.9;" xml:space="preserve">
<style type="text/css">
	.st0{fill:#00CC99;}
	.st1{fill:#FFFFFF;}
</style>
<path class="st0" d="M219.4,438.9C98.2,438.9,0,340.6,0,219.4S98.2,0,219.4,0s219.4,98.2,219.4,219.4S340.6,438.9,219.4,438.9z"/>
<path class="st1" d="M343.8,197.5H241.4V95.1c0-12.4-9.5-21.9-21.9-21.9c-12.4,0-21.9,9.5-21.9,21.9v102.4H95.1
	c-12.4,0-21.9,9.5-21.9,21.9c0,12.4,9.5,21.9,21.9,21.9h102.4v102.4c0,12.4,9.5,21.9,21.9,21.9c12.4,0,21.9-9.5,21.9-21.9V241.4
	h102.4c12.4,0,21.9-9.5,21.9-21.9S356.2,197.5,343.8,197.5z"/>
</svg>
