<?xml version="1.0" encoding="utf-8"?>
<!-- Generator: Adobe Illustrator 19.2.0, SVG Export Plug-In . SVG Version: 6.00 Build 0)  -->
<svg version="1.1" id="Layer_1" xmlns="http://www.w3.org/2000/svg" xmlns:xlink="http://www.w3.org/1999/xlink" x="0px" y="0px"
	 viewBox="0 0 550 550" style="enable-background:new 0 0 550 550;" xml:space="preserve">
<style type="text/css">
	.st0{fill:#FFB80E;stroke:#813531;stroke-width:12;stroke-miterlimit:10;}
	.st1{fill:#CCCC99;stroke:#813531;stroke-width:11.7074;stroke-miterlimit:10;}
	.st2{fill:#CCCC99;stroke:#813531;stroke-width:9.9855;stroke-miterlimit:10;}
	.st3{fill:#E32929;stroke:#813531;stroke-width:13.0838;stroke-miterlimit:10;}
	.st4{fill:#813531;}
</style>
<path class="st0" d="M446.3,513.5H113.1c-19.7,0-35.9-16.1-35.9-35.9V293.4c0-19.7,16.1-35.9,35.9-35.9h333.2
	c19.7,0,35.9,16.1,35.9,35.9v184.3C482.1,497.4,466,513.5,446.3,513.5z"/>
<path class="st1" d="M472.6,277.8H86.7c-19.7,0-35.9-16.1-35.9-35.9v0c0-19.7,16.1-35.9,35.9-35.9h385.8c19.7,0,35.9,16.1,35.9,35.9
	v0C508.4,261.7,492.3,277.8,472.6,277.8z"/>
<g>
	<path class="st2" d="M150.2,466.2h-6c-6.6,0-12-5.4-12-12l0-122.7c0-6.6,5.4-12,12-12h6c6.6,0,12,5.4,12,12l0,122.7
		C162.2,460.8,156.8,466.2,150.2,466.2z"/>
	<path class="st2" d="M282.7,466.2h-6c-6.6,0-12-5.4-12-12V331.5c0-6.6,5.4-12,12-12h6c6.6,0,12,5.4,12,12v122.7
		C294.7,460.8,289.3,466.2,282.7,466.2z"/>
	<path class="st2" d="M415.1,466.2h-6c-6.6,0-12-5.4-12-12l0-122.7c0-6.6,5.4-12,12-12h6c6.6,0,12,5.4,12,12l0,122.7
		C427.1,460.8,421.7,466.2,415.1,466.2z"/>
</g>
<path class="st3" d="M282,293.5h-4.7c-18.7,0-34-15.3-34-34V58.8c0-18.7,15.3-34,34-34h4.7c18.7,0,34,15.3,34,34v200.7
	C316,278.2,300.7,293.5,282,293.5z"/>
<circle class="st4" cx="279.7" cy="242" r="20.3"/>
</svg>
